<svg id="visual" viewBox="0 0 900 600" width="900" height="600" xmlns="http://www.w3.org/2000/svg" xmlns:xlink="http://www.w3.org/1999/xlink" version="1.1"><rect x="0" y="0" width="900" height="600" fill="#1a1919"></rect><path d="M0 383L129 383L129 342L257 342L257 381L386 381L386 377L514 377L514 382L643 382L643 346L771 346L771 331L900 331L900 361L900 601L900 601L771 601L771 601L643 601L643 601L514 601L514 601L386 601L386 601L257 601L257 601L129 601L129 601L0 601Z" fill="#a80828"></path><path d="M0 418L129 418L129 421L257 421L257 451L386 451L386 376L514 376L514 424L643 424L643 450L771 450L771 399L900 399L900 397L900 601L900 601L771 601L771 601L643 601L643 601L514 601L514 601L386 601L386 601L257 601L257 601L129 601L129 601L0 601Z" fill="#980724"></path><path d="M0 464L129 464L129 486L257 486L257 504L386 504L386 494L514 494L514 504L643 504L643 471L771 471L771 451L900 451L900 438L900 601L900 601L771 601L771 601L643 601L643 601L514 601L514 601L386 601L386 601L257 601L257 601L129 601L129 601L0 601Z" fill="#880620"></path><path d="M0 513L129 513L129 551L257 551L257 494L386 494L386 517L514 517L514 497L643 497L643 559L771 559L771 536L900 536L900 503L900 601L900 601L771 601L771 601L643 601L643 601L514 601L514 601L386 601L386 601L257 601L257 601L129 601L129 601L0 601Z" fill="#78051c"></path></svg>